<svg width="176" height="13" viewBox="0 0 176 13" fill="none" xmlns="http://www.w3.org/2000/svg">
<g clip-path="url(#clip0_185_191)">
<path d="M86.5236 3.9071C84.406 2.22824 79.7383 3.8031 81.1103 6.90824C81.2594 7.26481 81.9305 7.20538 82.199 6.96767C82.5718 6.62595 82.0647 6.00195 82.3928 5.42252C82.7507 4.78367 83.9139 4.47167 84.7341 4.91738C85.3605 5.25909 85.5543 5.91281 85.614 6.13567C85.8377 6.89338 85.614 7.56195 85.5543 7.7551C84.6745 10.2511 80.0366 10.7562 79.5892 10.8008C78.8436 10.8751 78.2918 10.8454 78.1725 10.8454C74.847 10.786 71.417 9.04767 68.5091 7.62138C64.3782 5.58595 60.1132 3.2831 55.371 3.47624C53.0147 3.56538 50.4647 4.15967 48.4365 5.43738C46.5277 4.1151 44.1864 3.13452 42.8144 2.61452C42.039 2.31738 40.1749 1.6191 37.5204 1.29224C35.2388 1.00995 31.5852 0.891095 26.306 2.46595C17.6268 5.03624 15.8522 8.82481 9.30554 9.22595C8.41078 9.30024 5.23437 9.43395 2.98255 7.51738C2.50534 7.11624 1.67023 6.38824 1.74479 5.42252C1.81935 4.41224 2.89307 3.32767 3.83257 3.52081C4.44399 3.63967 5.01068 4.29338 4.95103 4.82824C4.89137 5.40767 4.08609 5.66024 4.17556 5.88309C4.25013 6.09109 5.02559 6.12081 5.54753 5.74938C6.11422 5.34824 6.35282 4.5311 6.18878 3.9071C5.8607 2.68881 3.9817 1.91624 2.50534 2.30252C-0.969327 3.23852 -0.566684 6.89338 2.10269 8.66138C8.57482 12.97 17.4777 7.68081 23.2937 4.82824C28.0658 2.48081 33.151 0.905952 38.4301 2.33224C41.3679 3.11967 44.2162 4.44195 46.647 6.28424C46.7812 6.37338 46.9154 6.47738 47.0497 6.59624C45.3645 8.43852 43.8285 12.0191 47.0497 12.9105C48.8243 13.4008 51.1805 12.0785 51.4638 10.2957C51.7322 8.61681 50.6287 7.14595 49.0778 5.92767C51.5235 4.29338 55.5648 4.04081 57.8316 4.53109C61.3659 5.28881 64.5572 7.19052 67.7634 8.78024C72.0285 10.8751 76.7856 12.5242 81.5726 11.4248C84.3464 10.7711 90.6246 7.14595 86.5236 3.9071ZM49.6296 10.37C48.8988 14.2031 47.1093 10.8602 47.0347 9.84995C46.9602 8.78024 47.2435 7.88881 47.7655 7.14595C48.526 7.78481 49.2716 8.54252 49.4506 9.37452C49.5103 9.6271 49.6892 10.1025 49.6296 10.37Z" fill="#D76372"/>
<path d="M80.7077 11.1134C78.5305 11.2026 76.5918 10.3557 75.7865 8.82543C75.2497 7.80028 75.1602 6.374 75.6225 5.49743C75.8312 5.09628 76.0699 4.99228 76.1742 4.96257C76.6067 4.814 77.1883 5.08143 77.412 5.48257C77.755 6.13628 76.9646 6.92371 77.2927 7.26543C77.4866 7.47343 77.919 7.39914 78.1875 7.23571C78.7094 6.92371 78.7243 6.166 78.6498 5.76486C78.4857 4.90314 77.6506 4.21971 76.8304 4.05628C75.4286 3.78886 73.8031 5.022 73.5198 6.41857C73.0575 8.70657 75.876 10.4746 76.0699 10.5934C78.098 11.7969 80.2454 11.2471 80.7077 11.1134Z" fill="#D76372"/>
<path d="M41.2486 2.49617C39.6679 1.45617 37.0283 2.12474 35.5072 2.9716C33.6133 4.02645 32.0773 6.35903 33.1212 8.52817C34.016 10.3853 36.0739 10.8162 37.8784 10.0733C39.0266 9.59788 39.4889 8.45388 39.0416 7.80017C38.7582 7.39902 38.0722 7.19103 37.5503 7.3396C37.431 7.36931 37.2222 7.42874 37.1476 7.59217C37.0283 7.84474 37.3713 8.0676 37.3713 8.42417C37.3713 8.85503 36.8941 9.36017 36.4617 9.40474C35.716 9.46417 34.9256 8.1716 34.7467 7.05731C34.5976 6.0916 34.9107 5.09617 35.4774 4.30874C36.6257 2.70417 38.3407 2.60017 40.1898 2.71903C40.3241 2.73388 41.3232 2.5556 41.2486 2.49617Z" fill="#D76372"/>
<path d="M53.4323 1.33714C53.4323 2.08 52.8358 2.67429 52.0902 2.67429C51.3446 2.67429 50.748 2.08 50.748 1.33714C50.748 0.594286 51.3446 0 52.0902 0C52.8358 0 53.4323 0.594286 53.4323 1.33714Z" fill="#D76372"/>
<path d="M59.472 7.13109C59.472 7.87395 58.8755 8.46823 58.1299 8.46823C57.3842 8.46823 56.7877 7.87395 56.7877 7.13109C56.7877 6.38823 57.3842 5.79395 58.1299 5.79395C58.8606 5.79395 59.472 6.40309 59.472 7.13109Z" fill="#D76372"/>
<path d="M173.659 2.19903C171.824 1.79788 169.781 2.82303 169.677 4.24931C169.617 5.03674 170.065 6.03217 170.87 6.2996C171.467 6.5076 172.257 6.2996 172.346 5.95788C172.466 5.52703 171.273 5.17046 171.347 4.45731C171.392 4.1156 171.645 3.8036 172.152 3.47674C174.166 2.22874 174.568 4.88817 173.987 6.2996C172.6 9.71674 167.858 9.7316 164.771 9.12246C160.491 8.26074 156.733 5.79446 152.826 3.96703C147.084 1.27788 141.238 0.267599 135.139 2.1396C132.753 2.8676 130.099 3.96703 127.906 5.48246C126.191 4.26417 123.91 3.66988 121.956 3.50646C117.363 3.13503 113.038 5.0516 109.027 7.0276C101.779 10.5785 99.9451 11.247 96.5599 10.8756C93.9203 10.5785 90.2071 9.33046 89.7 7.14646C89.6702 7.0276 89.4465 5.9876 90.043 5.30417C90.8036 4.4276 92.5484 4.50188 92.9361 5.14074C93.2791 5.70531 92.5484 6.59674 92.9957 7.0276C93.2045 7.22074 93.5028 7.19103 93.5475 7.19103C94.0396 7.14646 94.3379 6.6116 94.4572 6.41846C94.7554 5.8836 94.8896 5.06646 94.5765 4.44246C93.9203 3.10531 91.4299 2.9716 89.879 3.81846C85.5543 6.21046 89.193 10.2813 92.5185 11.2767C96.6046 12.495 101.153 11.3362 104.971 9.74646C111.264 7.1316 120.39 0.609313 126.698 6.43331C126.206 6.86417 125.744 7.30988 125.327 7.78531C123.582 9.8356 124.029 13.1042 127.25 12.9259C129.741 12.7922 131.113 10.6676 130.203 8.30531C129.845 7.38417 129.263 6.62646 128.548 6.00246C130.889 4.18988 134.349 2.91217 136.362 2.36246C141.283 0.995599 146.189 2.22874 150.753 4.30874C157.359 7.32474 164.666 12.2722 172.227 9.15217C174.882 8.05274 178.401 3.25388 173.659 2.19903ZM128.682 10.311C128.369 11.6333 126.877 12.5545 126.206 10.6825C126.013 10.1476 126.087 9.5236 126.236 8.98874C126.43 8.32017 126.833 7.68131 127.37 7.08703C128.041 7.88931 128.92 9.28588 128.682 10.311Z" fill="#D76372"/>
<path d="M93.8607 11.2617C93.8905 11.3806 96.6643 11.3954 99.1697 10.0137C100.035 9.53827 101.914 8.49827 102.093 6.77485C102.107 6.55199 102.152 5.77942 101.66 5.09599C101.108 4.32342 100.094 3.93713 99.0056 4.13027C98.1407 4.2937 96.5003 5.15542 96.5748 6.1657C96.6047 6.53713 96.8433 6.80456 96.9029 6.84913C97.3056 7.26513 98.0512 7.35427 98.2152 7.11656C98.3793 6.87885 97.8275 6.50742 97.9319 5.94285C98.0065 5.5417 98.4091 5.18513 98.8416 5.09599C99.4232 4.97713 99.9302 5.36342 100.169 5.71999C100.616 6.41827 100.199 7.33942 100.094 7.59199C99.2591 9.46399 96.6941 10.3257 94.5914 11.024C94.0844 11.1726 93.8607 11.232 93.8607 11.2617Z" fill="#D76372"/>
<path d="M134.289 2.7038C136.645 2.43637 139.225 3.44665 140.001 5.88322C140.284 6.78951 140.254 7.78494 139.762 8.61694C139.583 8.94379 139.27 9.52322 138.688 9.56779C138.137 9.61237 137.525 9.16665 137.51 8.72094C137.48 8.11179 138.554 7.74037 138.435 7.41351C138.36 7.19065 137.794 7.17579 137.421 7.23522C136.571 7.35408 135.557 8.03751 135.542 8.88437C135.527 9.38951 135.885 9.77579 135.93 9.82037C137.152 11.1872 139.896 10.2215 140.985 9.16665C142.789 7.41351 142.178 4.6798 140.314 3.20894C138.42 1.72322 135.87 1.78265 133.708 2.59979C133.439 2.7038 134.229 2.7038 134.289 2.7038Z" fill="#D76372"/>
<path d="M122.15 1.33714C122.15 2.08 122.747 2.67429 123.492 2.67429C124.238 2.67429 124.834 2.08 124.834 1.33714C124.834 0.594286 124.238 0 123.492 0C122.747 0 122.15 0.594286 122.15 1.33714Z" fill="#D76372"/>
<path d="M116.11 7.13109C116.11 7.87395 116.707 8.46823 117.453 8.46823C118.198 8.46823 118.795 7.87395 118.795 7.13109C118.795 6.38823 118.198 5.79395 117.453 5.79395C116.707 5.79395 116.11 6.40309 116.11 7.13109Z" fill="#D76372"/>
<path d="M89.4465 2.22874C89.4465 2.9716 88.85 3.56589 88.1044 3.56589C87.3587 3.56589 86.7622 2.9716 86.7622 2.22874C86.7622 1.48589 87.3587 0.891602 88.1044 0.891602C88.85 0.891602 89.4465 1.48589 89.4465 2.22874Z" fill="#D76372"/>
</g>
<defs>
<clipPath id="clip0_185_191">
<rect width="176" height="13" fill="white"/>
</clipPath>
</defs>
</svg>
