<svg width="221" height="73" viewBox="0 0 221 73" fill="none" xmlns="http://www.w3.org/2000/svg">
<g clip-path="url(#clip0_42_32379)">
<path d="M221 72.9159C216.572 68.6704 211.833 64.7028 206.597 61.4091C201.386 58.0986 195.729 55.403 189.777 53.5751C177.857 49.8181 165.062 49.5317 152.763 51.2754C146.592 52.143 140.548 53.5414 134.571 55.0408C128.595 56.5486 122.677 58.1913 116.767 59.7581C104.973 62.9591 93.1292 65.8316 81.1503 66.9688C69.2134 68.0976 57.0998 67.4321 45.7943 63.7509L43.6814 63.0602C42.9743 62.8327 42.3008 62.5379 41.6105 62.2768L39.5481 61.4849C38.8915 61.1817 38.2349 60.8953 37.5699 60.5668C34.9182 59.2863 32.3254 57.829 29.8168 56.237C24.808 53.0444 20.0939 49.3295 15.9606 45.1176C11.8694 40.9058 8.25809 36.138 6.30509 30.8731C5.80842 29.5674 5.4296 28.2281 5.20231 26.8887C4.95819 25.5409 4.84874 24.2015 4.93293 22.879C5.07603 20.2255 5.92627 17.6142 7.34892 15.3566C8.78 13.1075 10.7835 11.2206 13.1406 9.92332C15.4892 8.62607 18.2083 7.8932 20.9526 7.74158C26.1718 7.40463 31.6604 10.513 35.4738 14.4553L37.4688 16.5191L38.7652 14.0762C39.1272 13.3939 39.6575 12.5684 40.171 11.8439C40.693 11.1026 41.2654 10.3866 41.8631 9.71273C43.0584 8.35651 44.3969 7.13507 45.8617 6.14107C47.3264 5.14707 48.909 4.38051 50.5842 3.95932C52.2426 3.54656 54.1198 3.33597 55.8792 3.40336C59.4569 3.50444 62.9841 4.70904 65.821 6.90763C68.6578 9.0978 70.7792 12.2398 71.7557 15.7441C72.7575 19.2484 72.5302 23.0728 71.52 26.695C70.5014 30.334 68.7757 33.7962 66.7806 37.0983C64.7687 40.4004 62.4874 43.5424 60.0041 46.5413C57.5376 49.5485 54.9027 52.4294 52.1584 55.2093C57.9837 50.0287 63.5144 44.4016 67.9591 37.8732C70.1899 34.6217 72.1429 31.1174 73.4056 27.2762C74.6599 23.4602 75.1482 19.2147 74.1717 15.1292C73.2457 11.0521 70.8971 7.31197 67.6561 4.61638C64.4151 1.90394 60.2566 0.320276 56.0391 0.0591406C54.9869 -0.016673 53.9262 -0.00824925 52.8823 0.0675643C51.8385 0.134954 50.8031 0.278157 49.7172 0.514022C47.5874 0.994174 45.5923 1.90394 43.7992 3.05799C42.0062 4.21204 40.4068 5.60195 38.9757 7.13507C38.2601 7.90163 37.5951 8.70188 36.9722 9.53583C36.3408 10.3866 35.7768 11.1953 35.196 12.2146L38.4874 11.8355C37.2921 10.4961 36.1304 9.46002 34.8171 8.4239C33.5208 7.41305 32.1318 6.49487 30.6502 5.71988C27.6954 4.16992 24.2693 3.14222 20.7337 3.30227C17.3496 3.43705 13.9908 4.271 10.935 5.88836C7.88769 7.49729 5.24441 9.89805 3.34192 12.7958C1.44785 15.702 0.286144 19.0883 0.0420195 22.5673C-0.0926698 24.311 0.0167807 26.0548 0.294578 27.7227C0.563956 29.4074 0.993269 31.05 1.57412 32.6084C3.88909 38.9009 7.8961 44.1152 12.2819 48.6977C16.7267 53.2634 21.6933 57.2141 26.9967 60.6341C29.6653 62.3273 32.4011 63.9278 35.2886 65.2925C35.9957 65.6378 36.7533 65.9664 37.4941 66.3033L39.7249 67.1541C40.4741 67.4321 41.2065 67.7353 41.9641 67.9796L44.2286 68.7041C56.3338 72.5621 69.2303 73.2276 81.6385 71.9219C94.0889 70.5489 106.135 67.4152 117.937 64.0121C129.739 60.592 141.382 56.8013 153.293 54.6954C165.154 52.5895 177.487 52.48 189.196 55.5462C195.047 57.0793 200.687 59.4211 205.999 62.3863C211.319 65.3683 216.311 68.9568 221 72.9159Z" fill="#F4B0B8"/>
<path d="M8.27492 48.091C7.50888 41.6974 11.7853 35.1354 19.7067 34.0824C26.0371 33.24 31.2647 38.5301 31.2647 38.5301C31.2647 38.5301 34.3036 31.7406 40.5162 30.2917C48.2945 28.489 54.6081 33.1305 56.1402 39.3809C57.6554 45.5639 54.2798 51.9997 51.426 56.4727C47.5453 62.5546 41.2233 69.1841 37.4183 72.4188C32.7126 70.734 24.4629 66.758 18.6965 62.4282C14.4538 59.2441 9.03255 54.4088 8.27492 48.091Z" fill="#FFF9FA"/>
<path d="M10.3458 47.8383C10.0932 45.5724 10.5899 43.2306 11.76 41.2678C12.9133 39.2967 14.7232 37.7299 16.8866 36.7948C17.9473 36.2978 19.1679 36.0114 20.3128 35.8345C21.4324 35.6661 22.6109 35.7334 23.7894 35.9946C26.1465 36.4832 28.5204 37.7636 30.5239 39.2714L31.795 40.2317L32.2159 38.9682C33.3271 36.441 35.1707 33.9982 37.4941 32.3976C38.681 31.6058 39.9774 31.0583 41.4001 30.7971C42.8143 30.5107 44.2791 30.4012 45.7101 30.595C48.5807 30.9403 51.3082 32.3892 53.2191 34.5962C55.1468 36.7864 56.2243 39.7179 56.1738 42.6662C56.157 45.6313 55.2478 48.5375 54.0019 51.2415C52.7392 53.954 51.1482 56.5232 49.372 58.9324C45.7859 63.7339 41.661 68.1985 37.0816 72.0313L37.5951 71.9386C34.6488 70.5318 31.7698 68.9819 28.975 67.314C26.1802 65.6629 23.4527 63.894 20.8936 61.9733C18.3766 60.019 15.9185 57.9384 13.9992 55.5797C12.063 53.2295 10.6235 50.5845 10.3458 47.8383ZM6.20405 48.3353C6.71756 52.185 8.72107 55.5039 11.0613 58.1069C13.4604 60.7182 16.1458 62.8326 18.9911 64.6858C21.8364 66.539 24.8164 68.0805 27.8554 69.4705C30.9111 70.8183 34.009 72.0481 37.25 72.9073L37.5699 72.9916L37.7635 72.8147C40.0279 70.7677 42.1409 68.6028 44.1528 66.3368C46.1731 64.0793 48.1093 61.7459 49.8771 59.2862C51.628 56.8096 53.2443 54.2404 54.5575 51.4858C55.8455 48.7397 56.8052 45.7577 56.8388 42.6577C56.8473 41.1162 56.6284 39.5662 56.1317 38.0921C55.6351 36.6179 54.8522 35.2449 53.8588 34.0403C51.8722 31.6227 48.9679 30.0222 45.8701 29.5083C44.3212 29.2303 42.7301 29.2809 41.1812 29.5167C39.6239 29.7273 38.0581 30.2917 36.7028 31.1257C35.3306 31.9512 34.1184 33.0042 33.0578 34.1751C31.9971 35.3712 31.0963 36.6179 30.3135 38.0921L32.0055 37.7804C30.9869 36.6348 29.9094 35.7166 28.6803 34.8742C27.4597 34.0403 26.1128 33.358 24.6565 32.8694C23.1917 32.3976 21.6007 32.1618 20.0013 32.246C18.4271 32.3471 16.9371 32.6504 15.4639 33.2063C12.5008 34.234 9.90802 36.3989 8.20756 39.1029C6.52395 41.8491 5.84208 45.1512 6.20405 48.3353Z" fill="#F4B0B8"/>
</g>
<defs>
<clipPath id="clip0_42_32379">
<rect width="221" height="73" fill="white" transform="matrix(-1 0 0 1 221 0)"/>
</clipPath>
</defs>
</svg>
